HIERARCHY
ROOT hip
{
	OFFSET 0.000000 0.000000 0.000000 
	CHANNELS 6 Xposition Yposition Zposition Xrotation Zrotation Yrotation
	JOINT abdomen
	{
		OFFSET 0.000000 3.402643 0.000000 
		CHANNELS 3 Xrotation Zrotation Yrotation
		JOINT chest
		{
			OFFSET 0.000000 8.438565 -0.680529 
			CHANNELS 3 Xrotation Zrotation Yrotation
			JOINT neck
			{
				OFFSET 0.000000 10.207942 -0.272212 
				CHANNELS 3 Xrotation Zrotation Yrotation
				JOINT head
				{
					OFFSET 0.000000 3.130431 0.000000 
					CHANNELS 3 Xrotation Zrotation Yrotation
					End Site
					{
						OFFSET 0.000000 3.130435 0.000000 
					}
				}
			}
			JOINT lCollar
			{
				OFFSET 3.470700 6.669187 -0.816635 
				CHANNELS 3 Yrotation Zrotation Xrotation
				JOINT lShldr
				{
					OFFSET 3.198488 0.000000 0.000000 
					CHANNELS 3 Zrotation Yrotation Xrotation
					JOINT lForeArm
					{
						OFFSET 10.139888 0.000000 0.000000 
						CHANNELS 3 Yrotation Zrotation Xrotation
						JOINT lHand
						{
							OFFSET 8.370511 0.000000 0.000000 
							CHANNELS 3 Zrotation Yrotation Xrotation
							End Site
							{
								OFFSET 4.083176 0.000000 0.000000 
							}
						}
					}
				}
			}
			JOINT rCollar
			{
				OFFSET -3.470700 6.669187 -0.816635 
				CHANNELS 3 Yrotation Zrotation Xrotation
				JOINT rShldr
				{
					OFFSET -3.198488 0.000000 0.000000 
					CHANNELS 3 Zrotation Yrotation Xrotation
					JOINT rForeArm
					{
						OFFSET -10.139888 0.000000 0.000000 
						CHANNELS 3 Yrotation Zrotation Xrotation
						JOINT rHand
						{
							OFFSET -8.370511 0.000000 0.000000 
							CHANNELS 3 Zrotation Yrotation Xrotation
							End Site
							{
								OFFSET -4.083176 0.000000 0.000000 
							}
						}
					}
				}
			}
		}
	}
	JOINT lThigh
	{
		OFFSET 5.308129 -1.633274 1.361059 
		CHANNELS 3 Xrotation Zrotation Yrotation
		JOINT lShin
		{
			OFFSET -2.041588 -20.007561 0.000000 
			CHANNELS 3 Xrotation Zrotation Yrotation
			JOINT lFoot
			{
				OFFSET 0.000000 -19.190928 -1.224953 
				CHANNELS 3 Xrotation Yrotation Zrotation
				End Site
				{
					OFFSET 0.000000 -2.449906 4.627600 
				}
			}
		}
	}
	JOINT rThigh
	{
		OFFSET -5.308129 -1.633274 1.361059 
		CHANNELS 3 Xrotation Zrotation Yrotation
		JOINT rShin
		{
			OFFSET 2.041588 -20.007561 0.000000 
			CHANNELS 3 Xrotation Zrotation Yrotation
			JOINT rFoot
			{
				OFFSET 0.000000 -19.190928 -1.224953 
				CHANNELS 3 Xrotation Yrotation Zrotation
				End Site
				{
					OFFSET 0.000000 -2.449906 4.627600 
				}
			}
		}
	}
}
MOTION
Frames: 15
Frame Time: 0.033333
-51.716671 52.186802 58.968567 -4.951172 -4.052734 -26.563190 40.080864 -9.199755 -5.660404 -13.750000 12.128907 7.902442 51.553619 8.070152 2.616707 -78.134766 -7.412108 -8.154298 2.000000 -2.000000 0.000000 -68.144531 9.560547 -18.191738 -132.738388 2.290642 -2.037667 -71.176010 5.148627 -12.202765 -2.000000 2.000000 0.000000 97.412109 -15.830078 -13.127665 55.741646 1.383909 -2.312049 -4.885091 -50.875175 7.567205 -19.099794 10.253055 -7.450030 33.163307 -5.240016 -3.793668 9.583318 9.842668 -4.726500 5.895187 -2.430629 -23.690340 9.027111 5.793264 1.007256 -4.045465 -10.820362 3.080450 
-52.131294 52.209400 59.829041 -4.951172 -3.876953 -27.109377 39.524181 -9.735545 -5.430227 -13.750000 12.128907 7.902442 51.553619 8.070152 2.616707 -77.021484 -7.255858 -8.262952 2.000000 -2.000000 0.000000 -68.144531 9.560547 -18.191738 -132.908768 2.106636 -2.173586 -71.741913 4.642666 -11.873539 -2.000000 2.000000 0.000000 96.562500 -16.503906 -11.135585 55.217648 1.194227 -2.078619 -2.973809 -51.552395 7.901285 -15.501019 9.782163 -8.371667 22.213827 -5.585826 -2.698549 9.540736 9.344616 -4.693427 7.268788 -2.605917 -24.268076 9.407654 5.761775 0.912435 -5.321658 -9.894624 2.587015 
-52.496841 52.239552 60.758602 -5.126953 -3.876953 -27.803394 38.950798 -10.146928 -5.058120 -13.750000 12.128907 8.078223 51.553619 8.070152 2.616707 -76.308594 -7.207030 -8.769532 2.000000 -2.000000 0.000000 -68.134766 9.658202 -18.006174 -133.083511 2.099159 -2.134034 -72.601738 4.124160 -11.842164 -2.000000 2.000000 0.000000 95.585938 -17.207033 -8.574219 54.490032 1.525773 -1.892836 -1.340263 -52.155632 8.822871 -11.332925 9.293975 -8.791385 11.452151 -5.593931 -1.693129 9.468363 9.232966 -3.949981 8.527451 -2.743306 -25.017090 9.398239 5.675986 1.052205 -5.853842 -8.647258 2.550209 
-52.814598 52.239552 61.730865 -5.302735 -3.876954 -28.486330 38.395847 -10.689502 -4.810318 -13.740234 12.294923 8.117313 51.553619 8.070152 2.616707 -76.308594 -7.207030 -9.833984 2.000000 -2.000000 0.000000 -68.144531 9.589845 -18.181965 -133.267075 2.278051 -2.085824 -73.697678 3.922583 -11.884054 -2.000000 2.000000 0.000000 94.873047 -17.587891 -6.838889 54.151131 1.355981 -2.000759 -0.638206 -52.526680 9.911344 -8.341447 8.938951 -8.760673 5.087510 -5.876834 -0.874161 6.889333 8.993896 -2.768498 9.855927 -3.133715 -25.423906 9.216759 5.666474 1.191148 -6.414468 -7.302118 2.375459 
-53.085037 52.292282 62.634274 -5.302735 -3.876954 -29.375002 37.800030 -11.193252 -4.277128 -13.740234 12.294923 8.293096 51.553619 8.070152 2.616707 -77.207031 -7.246093 -11.231701 2.000000 -2.000000 0.000000 -68.144531 9.589845 -18.181965 -133.267075 2.278051 -2.085824 -73.749176 3.876621 -12.049321 -2.000000 2.000000 0.000000 95.175781 -17.392576 -7.805652 53.975346 1.355981 -2.000759 -0.989033 -52.380146 9.806560 -7.983621 8.941584 -8.749674 6.856943 -5.847746 -1.070656 6.146339 8.672456 -3.661948 10.958359 -3.436567 -25.336267 9.397781 5.683287 0.906559 -6.342033 -6.722952 2.049571 
-53.330475 52.322403 63.503189 -5.478515 -3.857421 -30.244802 37.216095 -11.608168 -3.896607 -13.564453 12.275390 8.330078 51.553619 8.070152 2.616707 -78.134766 -7.412108 -12.197267 2.000000 -2.000000 0.000000 -68.203117 9.560547 -18.601894 -133.267075 2.278051 -2.085824 -73.852005 4.127048 -12.330006 -2.000000 2.000000 0.000000 95.810547 -17.295204 -10.009949 53.975346 1.355981 -2.000759 -1.745653 -52.087543 9.147781 -7.388721 8.893074 -8.010073 8.629943 -5.798223 -1.761050 5.457183 8.841420 -4.539679 12.034415 -3.817817 -25.041283 9.397733 5.702833 0.898068 -6.201165 -6.076614 1.565327 
-53.562954 52.352547 64.351639 -5.478515 -3.857421 -31.299486 36.806290 -12.007154 -3.531134 -13.564453 12.275390 8.330078 51.553619 8.070152 2.616707 -79.433594 -7.675781 -12.511069 2.000000 -2.000000 0.000000 -68.212891 9.335938 -18.886719 -133.441803 2.280325 -2.046843 -73.622643 4.378030 -12.654113 -2.000000 2.000000 0.000000 96.171875 -16.640625 -12.278186 53.975361 1.346232 -2.001326 -2.223391 -51.990452 8.239500 -6.771253 8.148861 -7.574897 10.023198 -5.609465 -1.550524 4.774702 9.295371 -4.809936 13.066351 -4.403895 -24.802391 9.211573 5.730443 1.214658 -5.625774 -6.000453 1.306346 
-53.780499 52.314880 65.191513 -5.478515 -3.857421 -32.354168 36.254185 -12.572453 -3.253497 -13.544923 12.451172 8.583985 51.553619 8.070152 2.616707 -81.093750 -7.880858 -12.724611 2.000000 -2.000000 0.000000 -68.212891 9.306641 -18.896482 -133.441803 2.280325 -2.046843 -73.555252 4.530683 -12.987048 -2.000000 2.000000 0.000000 96.523438 -15.927736 -14.091798 54.138733 1.526342 -1.902581 -2.385730 -51.951637 7.747132 -6.195456 8.099645 -7.036525 11.254680 -5.759127 -1.552984 3.696145 9.179314 -5.349916 13.691622 -5.008573 -24.028133 9.904632 5.653860 1.280362 -6.048273 -6.216415 0.966367 
-53.896446 52.299812 65.943794 -5.664063 -4.052734 -33.360069 35.844421 -12.978292 -2.870222 -13.544923 12.451172 8.583985 51.553619 8.070152 2.616707 -82.773438 -8.212890 -12.511161 2.000000 -2.000000 0.000000 -68.212891 9.335938 -18.886719 -133.441803 2.280325 -2.046843 -73.976349 4.173295 -13.275327 -2.000000 2.000000 0.000000 96.250000 -14.667970 -15.881380 54.155914 1.356463 -2.176746 -2.619910 -51.971581 6.922066 -5.288111 7.465421 -5.749746 12.131293 -5.219357 -1.895288 3.186342 9.295486 -5.412764 14.082406 -5.799594 -23.486816 10.966770 5.618827 1.389516 -5.778024 -5.939189 0.388716 
-54.025356 52.307343 66.702660 -5.664063 -4.052734 -34.424519 35.610672 -13.153998 -2.542114 -13.564453 12.275390 8.505860 51.553619 8.070152 2.616707 -83.906250 -8.457030 -12.412110 2.000000 -2.000000 0.000000 -68.203117 9.453125 -18.689802 -133.267075 2.278051 -2.085824 -74.380295 3.775838 -13.446756 -2.000000 2.000000 0.000000 96.298828 -14.179688 -17.189892 54.308517 1.485562 -2.042114 -2.493454 -52.039715 5.811501 -4.402975 7.263865 -5.338908 12.670688 -5.720427 -1.694550 2.644294 9.348784 -5.826348 13.986908 -6.736599 -22.552046 12.380507 5.285657 1.181672 -4.994044 -5.849256 0.191403 
-54.100224 52.397743 67.440491 -5.664063 -4.052734 -35.488972 35.946552 -13.459434 -2.369390 -13.564453 12.275390 8.681641 51.553619 8.070152 2.616707 -84.658203 -8.623046 -12.472168 2.000000 -2.000000 0.000000 -68.203117 9.482422 -18.670265 -133.267075 2.278051 -2.085824 -74.423920 3.357727 -13.663155 -2.000000 2.000000 0.000000 96.416016 -13.945313 -17.794657 54.331421 1.355895 -2.167001 -3.506076 -51.553768 6.395226 -3.260371 7.175573 -4.252124 12.671388 -5.720776 -1.665370 1.569594 9.336282 -6.170583 12.131606 -8.113221 -22.622330 16.241804 4.935144 1.836842 -2.248856 -5.674698 -2.187453 
-54.070374 52.503208 68.064194 -5.664063 -4.052734 -36.524124 36.622501 -13.510826 -2.234514 -13.574219 12.119142 8.632813 51.553619 8.070152 2.616707 -85.068359 -8.837890 -12.050781 2.000000 -2.000000 0.000000 -68.164063 9.550781 -18.349609 -133.083511 2.099159 -2.134034 -73.825653 3.225625 -14.082476 -2.000000 2.000000 0.000000 96.630859 -13.632813 -18.019882 54.331421 1.355895 -2.167001 -4.966120 -50.904835 6.687334 -1.991479 6.531518 -2.975098 12.131447 -5.417089 -1.922333 1.110309 9.496068 -5.446611 8.743594 -10.532595 -21.755863 22.605509 4.761180 1.943115 2.937247 -5.840673 -4.310769 
-54.031261 52.510742 68.606567 -5.664063 -4.052734 -37.412800 37.461807 -13.435878 -2.016268 -13.583984 11.953125 8.593750 51.553619 8.070152 2.616707 -85.263672 -8.955077 -11.554255 2.000000 -2.000000 0.000000 -68.164063 9.550781 -18.349609 -133.083511 2.099159 -2.134034 -73.132446 3.215367 -14.181305 -2.000000 2.000000 0.000000 96.699219 -13.525391 -17.919922 54.506943 1.355327 -2.157255 -5.580031 -50.263252 6.965600 -1.053426 6.272761 -2.058843 11.794370 -5.750963 -1.580430 0.621522 9.495930 -5.540420 4.031126 -12.917805 -21.173952 29.289343 4.506713 2.718798 12.382818 -6.008520 -7.103848 
-54.052891 52.058739 69.090492 -5.839844 -4.208984 -38.085934 38.371632 -13.538238 -2.161368 -13.593750 11.777344 8.546915 51.553619 8.070152 2.616707 -85.087891 -8.984374 -10.880432 2.000000 -2.000000 0.000000 -68.164063 9.531251 -18.359375 -132.908768 2.106636 -2.173586 -72.472382 3.138657 -14.446680 -2.000000 2.000000 0.000000 96.904297 -13.115234 -17.804951 55.034523 1.375393 -2.165866 -6.255515 -49.895882 7.595170 -0.448911 5.975114 -0.787358 11.796485 -5.722634 -1.597488 -0.470080 9.174142 -5.236443 -0.988297 -14.778809 -20.851507 36.523327 4.447996 3.310803 16.096521 -10.822203 -5.279740 
-54.165493 52.058739 69.490875 -5.839844 -4.208984 -38.798828 39.482750 -13.562962 -2.485928 -13.251953 11.582031 8.564453 51.553619 8.070152 2.616707 -85.068359 -8.837890 -9.931641 2.000000 -2.000000 0.000000 -68.183594 9.628906 -18.435867 -132.908768 2.106636 -2.173586 -72.500206 2.993517 -14.593358 -2.000000 2.000000 0.000000 96.777344 -12.402344 -17.355612 55.217396 1.183910 -2.069441 -5.561574 -49.560005 7.228085 0.146552 5.737194 0.071670 11.795877 -5.771056 -1.572378 -1.190740 9.098309 -4.927440 -7.460949 -16.304995 -20.154806 44.407269 3.908386 3.742372 17.340139 -18.136181 2.605897 
